<svg width="25" height="25" viewBox="0 0 25 25" fill="none" xmlns="http://www.w3.org/2000/svg">
<path d="M4.40338 19.534H7.38631V12.2897L3.125 9.09375V18.2557C3.125 18.963 3.69819 19.534 4.40338 19.534Z" fill="#4285F4"/>
<path d="M17.6133 19.5341H20.5963C21.3037 19.5341 21.8747 18.9609 21.8747 18.2557V9.09375L17.6133 12.2898" fill="#34A853"/>
<path d="M17.6133 6.75085V12.2906L21.8747 9.0947V7.38995C21.8747 5.80904 20.07 4.90773 18.8065 5.85592" fill="#FBBC04"/>
<path d="M7.38672 12.2899V6.75019L12.5003 10.5852L17.6139 6.75V12.2898L12.5003 16.1251" fill="#EA4335"/>
<path d="M3.125 7.38995V9.09451L7.38631 12.2905V6.75085L6.19316 5.85592C4.92753 4.90773 3.125 5.80904 3.125 7.38995Z" fill="#C5221F"/>
</svg>
