<svg width="18" height="19" viewBox="0 0 18 19" fill="none" xmlns="http://www.w3.org/2000/svg">
<path d="M16.23 12.7598L13.69 12.4698C13.3914 12.4347 13.0886 12.4678 12.8046 12.5665C12.5206 12.6652 12.2626 12.827 12.05 13.0398L10.21 14.8798C7.37144 13.4357 5.0641 11.1284 3.62004 8.28977L5.47004 6.43977C5.90004 6.00977 6.11004 5.40977 6.04004 4.79977L5.75004 2.27977C5.69356 1.79186 5.45951 1.34179 5.0925 1.01536C4.7255 0.688932 4.25121 0.508966 3.76004 0.509768H2.03004C0.900041 0.509768 -0.0399593 1.44977 0.0300407 2.57977C0.560041 11.1198 7.39004 17.9398 15.92 18.4698C17.05 18.5398 17.99 17.5998 17.99 16.4698V14.7398C18 13.7298 17.24 12.8798 16.23 12.7598Z" fill="#FF4306"/>
</svg>
