<svg width="25" height="25" viewBox="0 0 25 25" fill="none" xmlns="http://www.w3.org/2000/svg">
<g clip-path="url(#clip0_702_14345)">
<path d="M1.01258 12.3563C1.01202 14.3728 1.54302 16.3417 2.5527 18.0771L0.916016 24.0066L7.03152 22.4156C8.72299 23.3292 10.6181 23.808 12.544 23.8081H12.5491C18.9067 23.8081 24.082 18.6748 24.0847 12.3653C24.086 9.30792 22.8871 6.43295 20.7089 4.26997C18.5311 2.10718 15.6347 0.915458 12.5486 0.914062C6.1902 0.914062 1.0153 6.04709 1.01267 12.3563" fill="url(#paint0_linear_702_14345)"/>
<path d="M0.600313 12.3527C0.599656 14.4417 1.14969 16.481 2.19537 18.2786L0.5 24.4207L6.83478 22.7726C8.58022 23.7168 10.5454 24.2147 12.5451 24.2154H12.5502C19.136 24.2154 24.4972 18.8975 24.5 12.3621C24.5011 9.19488 23.2591 6.21656 21.0031 3.97609C18.7468 1.73591 15.7468 0.501302 12.5502 0.5C5.96337 0.5 0.602938 5.81721 0.600313 12.3527ZM4.37291 17.969L4.13637 17.5965C3.14206 16.0277 2.61725 14.2149 2.618 12.3534C2.62006 6.9213 7.07544 2.50186 12.554 2.50186C15.2071 2.50298 17.7005 3.52921 19.5759 5.39116C21.4512 7.2533 22.4831 9.72865 22.4824 12.3614C22.48 17.7935 18.0245 22.2135 12.5502 22.2135H12.5463C10.7638 22.2126 9.01569 21.7376 7.49113 20.84L7.12831 20.6265L3.36912 21.6045L4.37291 17.969Z" fill="url(#paint1_linear_702_14345)"/>
<path d="M9.56383 7.39771C9.34014 6.9044 9.10473 6.89445 8.89202 6.8858C8.71783 6.87836 8.5187 6.87892 8.31977 6.87892C8.12064 6.87892 7.79711 6.95324 7.52364 7.24952C7.24989 7.54608 6.47852 8.26273 6.47852 9.72031C6.47852 11.1779 7.54848 12.5866 7.69764 12.7845C7.84698 12.982 9.76323 16.0689 12.7981 17.2564C15.3204 18.2433 15.8336 18.047 16.381 17.9975C16.9285 17.9482 18.1477 17.2811 18.3964 16.5892C18.6453 15.8975 18.6453 15.3046 18.5707 15.1807C18.496 15.0572 18.2969 14.9831 17.9983 14.835C17.6997 14.6869 16.2317 13.9701 15.958 13.8712C15.6843 13.7724 15.4853 13.7231 15.2861 14.0198C15.087 14.3159 14.5152 14.9831 14.341 15.1807C14.1669 15.3787 13.9926 15.4034 13.6941 15.2552C13.3953 15.1065 12.4337 14.7941 11.2929 13.7849C10.4052 12.9996 9.80598 12.0298 9.6318 11.7331C9.45761 11.437 9.61314 11.2764 9.76286 11.1288C9.89702 10.996 10.0615 10.7828 10.211 10.6099C10.3599 10.4369 10.4095 10.3134 10.5091 10.1158C10.6088 9.91808 10.5589 9.74506 10.4844 9.59687C10.4095 9.44868 9.82933 7.98347 9.56383 7.39771Z" fill="white"/>
</g>
<defs>
<linearGradient id="paint0_linear_702_14345" x1="1159.35" y1="2310.17" x2="1159.35" y2="0.914062" gradientUnits="userSpaceOnUse">
<stop stop-color="#1FAF38"/>
<stop offset="1" stop-color="#60D669"/>
</linearGradient>
<linearGradient id="paint1_linear_702_14345" x1="1200.5" y1="2392.57" x2="1200.5" y2="0.5" gradientUnits="userSpaceOnUse">
<stop stop-color="#F9F9F9"/>
<stop offset="1" stop-color="white"/>
</linearGradient>
<clipPath id="clip0_702_14345">
<rect width="24" height="24" fill="white" transform="translate(0.5 0.5)"/>
</clipPath>
</defs>
</svg>
